<svg t="1712670278144" class="icon" viewBox="0 0 1024 1024" version="1.1" xmlns="http://www.w3.org/2000/svg" p-id="1320" width="16" height="16"><path d="M671.573333 768.853333H335.36c-34.986667 0-63.146667-28.16-63.146667-63.146666V456.533333c0-14.506667 11.093333-25.6 25.6-25.6s25.6 11.093333 25.6 25.6v248.32c0 6.826667 5.12 11.946667 11.946667 11.946667h337.066667c6.826667 0 11.946667-5.12 11.946666-11.946667V456.533333c0-14.506667 11.093333-25.6 25.6-25.6s25.6 11.093333 25.6 25.6v248.32c0 34.986667-29.013333 64-64 64z" fill="#190D04" p-id="1321"></path><path d="M767.146667 537.6c-6.826667 0-12.8-2.56-17.92-7.68L512 293.546667c-5.12-5.12-12.8-5.12-17.066667 0L257.706667 529.92c-10.24 10.24-26.453333 10.24-35.84 0-10.24-10.24-10.24-26.453333 0-35.84l237.226666-237.226667c24.746667-24.746667 64.853333-24.746667 89.6 0L785.066667 494.08c10.24 10.24 10.24 26.453333 0 35.84-5.12 5.12-11.093333 7.68-17.92 7.68z" fill="#190D04" p-id="1322"></path><path d="M581.973333 736.426667H424.96v-162.133334c0-18.773333 15.36-34.133333 34.133333-34.133333h88.746667c18.773333 0 34.133333 15.36 34.133333 34.133333v162.133334z" fill="#E56D1C" p-id="1323"></path><path d="M607.573333 762.026667H399.36v-187.733334c0-33.28 26.453333-59.733333 59.733333-59.733333h88.746667c33.28 0 59.733333 26.453333 59.733333 59.733333v187.733334z m-157.013333-51.2h105.813333v-136.533334c0-5.12-3.413333-8.533333-8.533333-8.533333H459.093333c-5.12 0-8.533333 3.413333-8.533333 8.533333v136.533334z" fill="#190D04" p-id="1324"></path></svg>